<?xml version="1.0" encoding="utf-8"?>
<!-- Generator: Adobe Illustrator 15.1.0, SVG Export Plug-In . SVG Version: 6.00 Build 0)  -->
<!DOCTYPE svg PUBLIC "-//W3C//DTD SVG 1.1//EN" "http://www.w3.org/Graphics/SVG/1.1/DTD/svg11.dtd">
<svg version="1.1" id="Calque_1" xmlns="http://www.w3.org/2000/svg" xmlns:xlink="http://www.w3.org/1999/xlink" x="0px" y="0px"
	 width="200px" height="200px" viewBox="0 0 200 200" enable-background="new 0 0 200 200" xml:space="preserve">
<path fill-rule="evenodd" clip-rule="evenodd" d="M90.869,2.478c15.206-0.724,28.047,0.577,39.725,4.469
	c9.377,3.126,18.863,8.211,25.324,12.91c6.977,5.075,15.586,13.253,20.855,20.359c11.779,15.885,22.834,46.104,18.867,71.006
	c-2.764,17.363-10.35,34.139-19.365,46.18c-9.982,13.332-27.211,27.135-46.676,33.27c-2.822,0.889-6.184,1.02-9.434,1.986
	c-14.82,4.4-36.838,2.498-51.146-1.986c-27.733-8.693-50.107-30.426-60.083-56.111c-3.057-7.869-3.721-13.76-5.462-23.834
	c-0.587-3.396-1.878-6.779-1.986-9.931C1.091,89.165,4.347,77.824,7.945,67.03C14.77,46.555,25.627,32.054,41.71,20.354
	c7.762-5.647,17.347-11.267,25.82-13.903c2.653-0.825,5.749-0.739,8.441-1.49C81.068,3.541,83.628,2.823,90.869,2.478z
	 M105.27,58.588c-14.154-7.675-23.905,3.191-29.794,13.407c-2.924,5.073-6.099,13.348-9.931,13.903
	c-3.202,0.464-5.696-2.425-10.427-1.986c-12.904,1.198-17.449,16.402-22.345,26.318c-2.021,4.094-9.894,15.459-8.938,20.357
	c1.453,7.447,23.925,4.967,35.255,4.967c30.23,0,52.458,0,81.434,0c11.199,0,33.725,2.9,35.752-4.967
	c0.715-2.77-2.283-9.289-3.973-13.902c-5.436-14.844-9.219-30.612-17.875-40.221c-2.6-2.885-7.234-7.415-11.918-7.448
	c-9.217-0.066-9.107,8.304-17.875,11.421C116.219,73.869,114.359,63.518,105.27,58.588z"/>
<path fill-rule="evenodd" clip-rule="evenodd" fill="#FFFFFF" d="M124.635,80.437c8.768-3.117,8.658-11.487,17.875-11.421
	c4.684,0.034,9.318,4.563,11.918,7.448c8.656,9.609,12.439,25.377,17.875,40.221c1.689,4.613,4.688,11.133,3.973,13.902
	c-2.027,7.867-24.553,4.967-35.752,4.967c-28.977,0-51.204,0-81.434,0c-11.33,0-33.802,2.48-35.255-4.967
	c-0.956-4.898,6.917-16.264,8.938-20.357c4.896-9.916,9.441-25.12,22.345-26.318c4.731-0.439,7.225,2.451,10.427,1.986
	c3.833-0.556,7.007-8.831,9.931-13.903c5.889-10.216,15.64-21.082,29.794-13.407C114.359,63.518,116.219,73.869,124.635,80.437z
	 M81.434,77.954c-2.92,4.923-6.745,9.92-6.952,14.896c-0.351,8.448,7.982,16.751,10.428,23.337c1.176,3.168,1.593,7.127,2.979,8.441
	c2.101,1.996,10.676,2.824,13.903,1.49c4.137-1.709,6.592-10.721,8.938-16.387c2.018-4.873,7.561-13.291,7.449-18.372
	c-0.104-4.685-5.199-11.038-7.945-14.896c-4.311-6.058-8.443-12.709-16.386-11.42C87.401,66.09,84.939,72.046,81.434,77.954z
	 M162.373,110.727c-1.572-4.574-5.049-12.609-7.945-18.373c-2.375-4.722-8.359-15.679-13.406-13.407
	c-8.18,3.681-12.939,12.873-17.381,22.344c-3.68,7.852-8.648,16.396-8.441,23.836c8.635,3.223,21.096,0.977,31.779,0.992
	c6.535,0.01,13.537,2.115,18.373-0.992C165.291,120.312,164.117,115.807,162.373,110.727z M56.607,126.615
	c6.333,0,17.972,1.396,20.358-1.986c2.069-2.932-1.17-9.246-3.476-13.406c-3.922-7.074-8.55-18.809-17.379-18.869
	c-7.092-0.048-11.639,13.371-13.904,17.876c-2.343,4.66-6.128,8.764-6.455,14.896C40.307,127.59,48.288,126.615,56.607,126.615z"/>
<path fill-rule="evenodd" clip-rule="evenodd" d="M93.848,65.044c7.943-1.289,12.076,5.362,16.386,11.42
	c2.746,3.859,7.842,10.211,7.945,14.896c0.111,5.081-5.432,13.499-7.449,18.372c-2.346,5.666-4.801,14.678-8.938,16.387
	c-3.228,1.334-11.802,0.506-13.903-1.49c-1.386-1.314-1.804-5.273-2.979-8.441c-2.445-6.586-10.778-14.889-10.428-23.337
	c0.207-4.976,4.032-9.974,6.952-14.896C84.939,72.046,87.401,66.09,93.848,65.044z"/>
<path fill-rule="evenodd" clip-rule="evenodd" d="M164.352,125.127c-4.836,3.107-11.838,1.002-18.373,0.992
	c-10.684-0.016-23.145,2.23-31.779-0.992c-0.207-7.439,4.762-15.984,8.441-23.836c4.441-9.471,9.201-18.663,17.381-22.344
	c5.047-2.272,11.031,8.685,13.406,13.407c2.896,5.763,6.373,13.798,7.945,18.373C163.117,115.807,164.291,120.312,164.352,125.127z"
	/>
<path fill-rule="evenodd" clip-rule="evenodd" d="M35.751,125.127c0.327-6.133,4.112-10.236,6.455-14.896
	c2.265-4.506,6.812-17.924,13.904-17.876c8.83,0.06,13.458,11.794,17.379,18.869c2.306,4.16,5.545,10.475,3.476,13.406
	c-2.387,3.383-14.025,1.986-20.358,1.986C48.288,126.615,40.307,127.59,35.751,125.127z"/>
</svg>
